<svg width="113" height="106" viewBox="0 0 113 106" fill="none" xmlns="http://www.w3.org/2000/svg">
<path fill-rule="evenodd" clip-rule="evenodd" d="M0 17.0204C0 12.5063 1.7858 8.17711 4.96454 4.98516C8.14328 1.79322 12.4546 0 16.95 0H96.05C100.545 0 104.857 1.79322 108.035 4.98516C111.214 8.17711 113 12.5063 113 17.0204V85.102C113 89.6161 111.214 93.9453 108.035 97.1373C104.857 100.329 100.545 102.122 96.05 102.122H16.95C12.4546 102.122 8.14328 100.329 4.96454 97.1373C1.7858 93.9453 0 89.6161 0 85.102V17.0204ZM16.95 11.3469C15.4515 11.3469 14.0144 11.9447 12.9548 13.0087C11.8953 14.0726 11.3 15.5157 11.3 17.0204V85.102C11.3 86.6067 11.8953 88.0498 12.9548 89.1138C14.0144 90.1778 15.4515 90.7755 16.95 90.7755H96.05C97.5485 90.7755 98.9856 90.1778 100.045 89.1138C101.105 88.0498 101.7 86.6067 101.7 85.102V17.0204C101.7 15.5157 101.105 14.0726 100.045 13.0087C98.9856 11.9447 97.5485 11.3469 96.05 11.3469H16.95ZM79.1 22.6939C79.1 21.1892 79.6953 19.7461 80.7548 18.6821C81.8144 17.6181 83.2515 17.0204 84.75 17.0204H90.4C91.8985 17.0204 93.3356 17.6181 94.3952 18.6821C95.4547 19.7461 96.05 21.1892 96.05 22.6939C96.05 24.1986 95.4547 25.6416 94.3952 26.7056C93.3356 27.7696 91.8985 28.3673 90.4 28.3673H84.75C83.2515 28.3673 81.8144 27.7696 80.7548 26.7056C79.6953 25.6416 79.1 24.1986 79.1 22.6939ZM39.55 51.0612C39.55 46.5471 41.3358 42.2179 44.5145 39.026C47.6933 35.834 52.0046 34.0408 56.5 34.0408C60.9954 34.0408 65.3067 35.834 68.4855 39.026C71.6642 42.2179 73.45 46.5471 73.45 51.0612C73.45 55.5753 71.6642 59.9045 68.4855 63.0965C65.3067 66.2884 60.9954 68.0816 56.5 68.0816C52.0046 68.0816 47.6933 66.2884 44.5145 63.0965C41.3358 59.9045 39.55 55.5753 39.55 51.0612ZM56.5 22.6939C49.0076 22.6939 41.8221 25.6826 36.5242 31.0025C31.2263 36.3224 28.25 43.5377 28.25 51.0612C28.25 58.5847 31.2263 65.8001 36.5242 71.12C41.8221 76.4399 49.0076 79.4286 56.5 79.4286C63.9924 79.4286 71.1779 76.4399 76.4758 71.12C81.7737 65.8001 84.75 58.5847 84.75 51.0612C84.75 43.5377 81.7737 36.3224 76.4758 31.0025C71.1779 25.6826 63.9924 22.6939 56.5 22.6939Z" fill="#B2B2B2"/>
</svg>
