<svg width="76" height="79" viewBox="0 0 76 79" fill="none" xmlns="http://www.w3.org/2000/svg">
<g clip-path="url(#clip0_77_247)">
<path d="M23.1902 0.910352L21.7143 4.9375H5.42857C2.42589 4.9375 0 7.14395 0 9.875C0 12.6061 2.42589 14.8125 5.42857 14.8125H70.5714C73.5741 14.8125 76 12.6061 76 9.875C76 7.14395 73.5741 4.9375 70.5714 4.9375H54.2857L52.8098 0.910352C52.0634 -1.11094 49.9937 -2.46875 47.6527 -2.46875H28.3473C26.0063 -2.46875 23.9366 -1.11094 23.1902 0.910352ZM70.5714 22.2188H5.42857L9.00804 72.0721C9.27946 75.9758 12.842 79 17.1339 79H58.8661C63.158 79 66.7205 75.9758 66.992 72.0721L70.5714 22.2188Z" fill="black"/>
</g>
<defs>
<clipPath id="clip0_77_247">
<rect width="76" height="79" fill="white"/>
</clipPath>
</defs>
</svg>
